<svg xmlns="http://www.w3.org/2000/svg" xmlns:xlink="http://www.w3.org/1999/xlink" viewBox="0 0 567 211.09"><defs><style>.cls-1{isolation:isolate;}.cls-2{fill:#00b8d4;}.cls-3,.cls-5,.cls-6{fill:#6018e5;}.cls-4,.cls-5,.cls-6{mix-blend-mode:multiply;}.cls-4{fill:url(#linear-gradient);}.cls-6{font-size:140px;}.cls-6,.cls-8{font-family:Helvetica-Bold, Helvetica;font-weight:700;}.cls-7,.cls-8{fill:#1b00bb;}.cls-8{font-size:39px;}</style><linearGradient id="linear-gradient" x1="136.76" y1="120.18" x2="104.51" y2="125.18" gradientUnits="userSpaceOnUse"><stop offset="0" stop-color="#00b8d4"/><stop offset="1" stop-color="#00b8d4" stop-opacity="0"/></linearGradient></defs><g class="cls-1"><g id="Layer_2" data-name="Layer 2"><g id="OBJECTS"><path class="cls-2" d="M8.22,183.85h0a15,15,0,0,1-6.59-20.16L78.86,11.49A20.87,20.87,0,0,1,98.08,0a21.46,21.46,0,0,1,18.44,11.92l48.94,97.33a20.86,20.86,0,0,1-.78,20.4,21.54,21.54,0,0,1-18.47,10.09h-49a15,15,0,0,1-15-15h0a15,15,0,0,1,15-15h34.89L97.57,40.9,28.38,177.26A15,15,0,0,1,8.22,183.85Z"/><path class="cls-3" d="M8.22,183.85h0a15,15,0,0,1-6.59-20.16L78.86,11.49A20.87,20.87,0,0,1,98.08,0a21.46,21.46,0,0,1,18.44,11.92l48.94,97.33a20.86,20.86,0,0,1-.78,20.4,21.54,21.54,0,0,1-18.47,10.09h-49a15,15,0,0,1-15-15h0a15,15,0,0,1,15-15h34.89L97.57,40.9,28.38,177.26A15,15,0,0,1,8.22,183.85Z"/><path class="cls-3" d="M167.42,185.76H66.08a15,15,0,1,1,0-30H167.42a15,15,0,0,1,0,30Z"/><path class="cls-3" d="M164.68,129.66a20.86,20.86,0,0,0,.78-20.4L116.52,11.93A21.46,21.46,0,0,0,98.08,0,20.87,20.87,0,0,0,78.86,11.49L64.8,39.18h0C87,17.29,97.57,40.9,97.57,40.9l34.5,68.85H97.18a15,15,0,0,0,0,30h49A21.54,21.54,0,0,0,164.68,129.66Z"/><path class="cls-4" d="M132.07,109.75H97.18a15,15,0,0,0,0,30h21.3C148,135.86,132.07,109.75,132.07,109.75Z"/><path class="cls-5" d="M182.42,170.76a15,15,0,0,0-15-15H66.08s-4.33,30,62.34,30h39A15,15,0,0,0,182.42,170.76Z"/><text class="cls-6" transform="translate(177.7 143.76)">cc<tspan class="cls-7" x="155.72" y="0">e</tspan><tspan x="233.58" y="0">ss</tspan></text><text class="cls-8" transform="translate(203 184.48)">Disability Services</text></g></g></g></svg>